<?xml version="1.0" encoding="UTF-8" standalone="no"?>
<svg
   width="35"
   height="200"
   version="1.1"
   id="svg13"
   sodipodi:docname="add-workspace-active.svg"
   inkscape:version="1.1.1 (3bf5ae0d25, 2021-09-20)"
   xmlns:inkscape="http://www.inkscape.org/namespaces/inkscape"
   xmlns:sodipodi="http://sodipodi.sourceforge.net/DTD/sodipodi-0.dtd"
   xmlns="http://www.w3.org/2000/svg"
   xmlns:svg="http://www.w3.org/2000/svg">
  <sodipodi:namedview
     id="namedview15"
     pagecolor="#ffffff"
     bordercolor="#666666"
     borderopacity="1.0"
     inkscape:pageshadow="2"
     inkscape:pageopacity="0.0"
     inkscape:pagecheckerboard="0"
     showgrid="false"
     inkscape:zoom="4.155"
     inkscape:cx="17.569194"
     inkscape:cy="99.879663"
     inkscape:window-width="1920"
     inkscape:window-height="1024"
     inkscape:window-x="0"
     inkscape:window-y="24"
     inkscape:window-maximized="1"
     inkscape:current-layer="svg13" />
  <defs
     id="defs5">
    <filter
       id="a"
       x="-0.132"
       y="-0.020842105"
       width="1.264"
       height="1.0416842"
       color-interpolation-filters="sRGB">
      <feGaussianBlur
         stdDeviation="1.65"
         id="feGaussianBlur2" />
    </filter>
  </defs>
  <path
     d="M7 5h28v190H7a2 2 0 01-2-2V7c0-1.1.9-2 2-2z"
     fill="#000000"
     fill-opacity=".4"
     filter="url(#a)"
     transform="translate(0 1)"
     id="path7" />
  <path
     d="M7 5h28v190H7a2 2 0 01-2-2V7c0-1.1.9-2 2-2z"
     fill="#1967d2"
     id="path9"
     style="fill:#097c99;fill-opacity:0.81176472" />
  <path
     d="M18 94a1 1 0 00-1 1v4h-4a1 1 0 100 2h4v4a1 1 0 102 0v-4h4a1 1 0 100-2h-4v-4a1 1 0 00-1-1zm8 6a8 8 0 01-8 8 8 8 0 01-8-8 8 8 0 018-8 8 8 0 018 8z"
     fill="#d8dee8"
     id="path11" />
</svg>
