<?xml version="1.0" encoding="UTF-8" standalone="no"?>
<svg
   width="512"
   height="32"
   viewBox="0 0 512 32"
   version="1.1"
   id="svg137"
   sodipodi:docname="process-working.svg"
   inkscape:version="1.1.1 (3bf5ae0d25, 2021-09-20)"
   xmlns:inkscape="http://www.inkscape.org/namespaces/inkscape"
   xmlns:sodipodi="http://sodipodi.sourceforge.net/DTD/sodipodi-0.dtd"
   xmlns:xlink="http://www.w3.org/1999/xlink"
   xmlns="http://www.w3.org/2000/svg"
   xmlns:svg="http://www.w3.org/2000/svg">
  <sodipodi:namedview
     id="namedview139"
     pagecolor="#ffffff"
     bordercolor="#666666"
     borderopacity="1.0"
     inkscape:pageshadow="2"
     inkscape:pageopacity="0.0"
     inkscape:pagecheckerboard="0"
     showgrid="false"
     inkscape:zoom="1.6806641"
     inkscape:cx="111.86055"
     inkscape:cy="39.270192"
     inkscape:window-width="1920"
     inkscape:window-height="1024"
     inkscape:window-x="0"
     inkscape:window-y="24"
     inkscape:window-maximized="1"
     inkscape:current-layer="svg137" />
  <defs
     id="defs7">
    <g
       id="g"
       fill="#d8dee8"
       fill-opacity=".7">
      <circle
         cx="8"
         cy="8"
         r="8"
         fill="none"
         id="circle2" />
      <path
         d="M8 1a7 7 0 0 0-7 7 7 7 0 0 0 7 7 7 7 0 0 0 7-7h-3a4 4 0 0 1-4 4 4 4 0 0 1-4-4 4 4 0 0 1 4-4V1z"
         id="path4" />
    </g>
  </defs>
  <use
     xlink:href="#g"
     transform="translate(0) rotate(0 8 8)"
     id="use9"
     style="fill:#d8dee8;fill-opacity:0.81176472" />
  <use
     xlink:href="#g"
     transform="translate(16) rotate(5.625 8 8)"
     id="use11"
     style="fill:#d8dee8;fill-opacity:0.81176472" />
  <use
     xlink:href="#g"
     transform="translate(32) rotate(11.25 8 8)"
     id="use13"
     style="fill:#d8dee8;fill-opacity:0.81176472" />
  <use
     xlink:href="#g"
     transform="translate(48) rotate(16.875 8 8)"
     id="use15"
     style="fill:#d8dee8;fill-opacity:0.81176472" />
  <use
     xlink:href="#g"
     transform="translate(64) rotate(22.5 8 8)"
     id="use17"
     style="fill:#d8dee8;fill-opacity:0.81176472" />
  <use
     xlink:href="#g"
     transform="translate(80) rotate(28.125 8 8)"
     id="use19"
     style="fill:#d8dee8;fill-opacity:0.81176472" />
  <use
     xlink:href="#g"
     transform="translate(96) rotate(33.75 8 8)"
     id="use21"
     style="fill:#d8dee8;fill-opacity:0.81176472" />
  <use
     xlink:href="#g"
     transform="translate(112) rotate(39.375 8 8)"
     id="use23"
     style="fill:#d8dee8;fill-opacity:0.81176472" />
  <use
     xlink:href="#g"
     transform="translate(128) rotate(45 8 8)"
     id="use25"
     style="fill:#d8dee8;fill-opacity:0.81176472" />
  <use
     xlink:href="#g"
     transform="translate(144) rotate(50.625 8 8)"
     id="use27"
     style="fill:#d8dee8;fill-opacity:0.81176472" />
  <use
     xlink:href="#g"
     transform="translate(160) rotate(56.25 8 8)"
     id="use29"
     style="fill:#d8dee8;fill-opacity:0.81176472" />
  <use
     xlink:href="#g"
     transform="translate(176) rotate(61.875 8 8)"
     id="use31"
     style="fill:#d8dee8;fill-opacity:0.81176472" />
  <use
     xlink:href="#g"
     transform="translate(192) rotate(67.5 8 8)"
     id="use33"
     style="fill:#d8dee8;fill-opacity:0.81176472" />
  <use
     xlink:href="#g"
     transform="translate(208) rotate(73.125 8 8)"
     id="use35"
     style="fill:#d8dee8;fill-opacity:0.81176472" />
  <use
     xlink:href="#g"
     transform="translate(224) rotate(78.75 8 8)"
     id="use37"
     style="fill:#d8dee8;fill-opacity:0.81176472" />
  <use
     xlink:href="#g"
     transform="translate(240) rotate(84.375 8 8)"
     id="use39"
     style="fill:#d8dee8;fill-opacity:0.81176472" />
  <use
     xlink:href="#g"
     transform="translate(256) rotate(90 8 8)"
     id="use41"
     style="fill:#d8dee8;fill-opacity:0.81176472" />
  <use
     xlink:href="#g"
     transform="translate(272) rotate(95.625 8 8)"
     id="use43"
     style="fill:#d8dee8;fill-opacity:0.81176472" />
  <use
     xlink:href="#g"
     transform="translate(288) rotate(101.25 8 8)"
     id="use45"
     style="fill:#d8dee8;fill-opacity:0.81176472" />
  <use
     xlink:href="#g"
     transform="translate(304) rotate(106.875 8 8)"
     id="use47"
     style="fill:#d8dee8;fill-opacity:0.81176472" />
  <use
     xlink:href="#g"
     transform="translate(320) rotate(112.5 8 8)"
     id="use49"
     style="fill:#d8dee8;fill-opacity:0.81176472" />
  <use
     xlink:href="#g"
     transform="translate(336) rotate(118.125 8 8)"
     id="use51"
     style="fill:#d8dee8;fill-opacity:0.81176472" />
  <use
     xlink:href="#g"
     transform="translate(352) rotate(123.75 8 8)"
     id="use53"
     style="fill:#d8dee8;fill-opacity:0.81176472" />
  <use
     xlink:href="#g"
     transform="translate(368) rotate(129.375 8 8)"
     id="use55"
     style="fill:#d8dee8;fill-opacity:0.81176472" />
  <use
     xlink:href="#g"
     transform="translate(384) rotate(135 8 8)"
     id="use57"
     style="fill:#d8dee8;fill-opacity:0.81176472" />
  <use
     xlink:href="#g"
     transform="translate(400) rotate(140.625 8 8)"
     id="use59"
     style="fill:#d8dee8;fill-opacity:0.81176472" />
  <use
     xlink:href="#g"
     transform="translate(416) rotate(146.25 8 8)"
     id="use61"
     style="fill:#d8dee8;fill-opacity:0.81176472" />
  <use
     xlink:href="#g"
     transform="translate(432) rotate(151.875 8 8)"
     id="use63"
     style="fill:#d8dee8;fill-opacity:0.81176472" />
  <use
     xlink:href="#g"
     transform="translate(448) rotate(157.5 8 8)"
     id="use65"
     style="fill:#d8dee8;fill-opacity:0.81176472" />
  <use
     xlink:href="#g"
     transform="translate(464) rotate(163.125 8 8)"
     id="use67"
     style="fill:#d8dee8;fill-opacity:0.81176472" />
  <use
     xlink:href="#g"
     transform="translate(480) rotate(168.75 8 8)"
     id="use69"
     style="fill:#d8dee8;fill-opacity:0.81176472" />
  <use
     xlink:href="#g"
     transform="translate(496) rotate(174.375 8 8)"
     id="use71"
     style="fill:#d8dee8;fill-opacity:0.81176472" />
  <use
     xlink:href="#g"
     transform="translate(0 16) rotate(180 8 8)"
     id="use73"
     style="fill:#d8dee8;fill-opacity:0.81176472" />
  <use
     xlink:href="#g"
     transform="translate(16 16) rotate(185.625 8 8)"
     id="use75"
     style="fill:#d8dee8;fill-opacity:0.81176472" />
  <use
     xlink:href="#g"
     transform="translate(32 16) rotate(191.25 8 8)"
     id="use77"
     style="fill:#d8dee8;fill-opacity:0.81176472" />
  <use
     xlink:href="#g"
     transform="translate(48 16) rotate(196.875 8 8)"
     id="use79"
     style="fill:#d8dee8;fill-opacity:0.81176472" />
  <use
     xlink:href="#g"
     transform="translate(64 16) rotate(202.5 8 8)"
     id="use81"
     style="fill:#d8dee8;fill-opacity:0.81176472" />
  <use
     xlink:href="#g"
     transform="translate(80 16) rotate(208.125 8 8)"
     id="use83"
     style="fill:#d8dee8;fill-opacity:0.81176472" />
  <use
     xlink:href="#g"
     transform="translate(96 16) rotate(213.75 8 8)"
     id="use85"
     style="fill:#d8dee8;fill-opacity:0.81176472" />
  <use
     xlink:href="#g"
     transform="translate(112 16) rotate(219.375 8 8)"
     id="use87"
     style="fill:#d8dee8;fill-opacity:0.81176472" />
  <use
     xlink:href="#g"
     transform="translate(128 16) rotate(225 8 8)"
     id="use89"
     style="fill:#d8dee8;fill-opacity:0.81176472" />
  <use
     xlink:href="#g"
     transform="translate(144 16) rotate(230.625 8 8)"
     id="use91"
     style="fill:#d8dee8;fill-opacity:0.81176472" />
  <use
     xlink:href="#g"
     transform="translate(160 16) rotate(236.25 8 8)"
     id="use93"
     style="fill:#d8dee8;fill-opacity:0.81176472" />
  <use
     xlink:href="#g"
     transform="translate(176 16) rotate(241.875 8 8)"
     id="use95"
     style="fill:#d8dee8;fill-opacity:0.81176472" />
  <use
     xlink:href="#g"
     transform="translate(192 16) rotate(247.5 8 8)"
     id="use97"
     style="fill:#d8dee8;fill-opacity:0.81176472" />
  <use
     xlink:href="#g"
     transform="translate(208 16) rotate(253.125 8 8)"
     id="use99"
     style="fill:#d8dee8;fill-opacity:0.81176472" />
  <use
     xlink:href="#g"
     transform="translate(224 16) rotate(258.75 8 8)"
     id="use101"
     style="fill:#d8dee8;fill-opacity:0.81176472" />
  <use
     xlink:href="#g"
     transform="translate(240 16) rotate(264.375 8 8)"
     id="use103"
     style="fill:#d8dee8;fill-opacity:0.81176472" />
  <use
     xlink:href="#g"
     transform="translate(256 16) rotate(270 8 8)"
     id="use105"
     style="fill:#d8dee8;fill-opacity:0.81176472" />
  <use
     xlink:href="#g"
     transform="translate(272 16) rotate(275.625 8 8)"
     id="use107"
     style="fill:#d8dee8;fill-opacity:0.81176472" />
  <use
     xlink:href="#g"
     transform="translate(288 16) rotate(281.25 8 8)"
     id="use109"
     style="fill:#d8dee8;fill-opacity:0.81176472" />
  <use
     xlink:href="#g"
     transform="translate(304 16) rotate(286.875 8 8)"
     id="use111"
     style="fill:#d8dee8;fill-opacity:0.81176472" />
  <use
     xlink:href="#g"
     transform="translate(320 16) rotate(292.5 8 8)"
     id="use113"
     style="fill:#d8dee8;fill-opacity:0.81176472" />
  <use
     xlink:href="#g"
     transform="translate(336 16) rotate(298.125 8 8)"
     id="use115"
     style="fill:#d8dee8;fill-opacity:0.81176472" />
  <use
     xlink:href="#g"
     transform="translate(352 16) rotate(303.75 8 8)"
     id="use117"
     style="fill:#d8dee8;fill-opacity:0.81176472" />
  <use
     xlink:href="#g"
     transform="translate(368 16) rotate(309.375 8 8)"
     id="use119"
     style="fill:#d8dee8;fill-opacity:0.81176472" />
  <use
     xlink:href="#g"
     transform="translate(384 16) rotate(315 8 8)"
     id="use121"
     style="fill:#d8dee8;fill-opacity:0.81176472" />
  <use
     xlink:href="#g"
     transform="translate(400 16) rotate(320.625 8 8)"
     id="use123"
     style="fill:#d8dee8;fill-opacity:0.81176472" />
  <use
     xlink:href="#g"
     transform="translate(416 16) rotate(326.25 8 8)"
     id="use125"
     style="fill:#d8dee8;fill-opacity:0.81176472" />
  <use
     xlink:href="#g"
     transform="translate(432 16) rotate(331.875 8 8)"
     id="use127"
     style="fill:#d8dee8;fill-opacity:0.81176472" />
  <use
     xlink:href="#g"
     transform="translate(448 16) rotate(337.5 8 8)"
     id="use129"
     style="fill:#d8dee8;fill-opacity:0.81176472" />
  <use
     xlink:href="#g"
     transform="translate(464 16) rotate(343.125 8 8)"
     id="use131"
     style="fill:#d8dee8;fill-opacity:0.81176472" />
  <use
     xlink:href="#g"
     transform="translate(480 16) rotate(348.75 8 8)"
     id="use133"
     style="fill:#d8dee8;fill-opacity:0.81176472" />
  <use
     xlink:href="#g"
     transform="translate(496 16) rotate(354.375 8 8)"
     id="use135"
     style="fill:#d8dee8;fill-opacity:0.81176472" />
</svg>
